<svg xmlns="http://www.w3.org/2000/svg" width="112.46" height="1039" viewBox="0 0 112.46 1039"><title>brushstroke-projects</title><path d="M25.39 922.24a.52.52 0 0 1 .61.61.52.52 0 0 1-.61-.61zm1.21 1.21q0-.63-.6-.6a.51.51 0 0 0 .6.6zm-5.09 114c-.08 0-.23.16-.35.26v.27a2.41 2.41 0 0 0 .47-.18c.16-.08.12-.26-.12-.33zm.61-123.62c-.08 0-.24.17-.35.26v.27a2.54 2.54 0 0 0 .46-.17c.16-.08.12-.26-.11-.34zm-.35 62.2c-.91.05-.52.75-.61 1.21.91-.03.51-.73.61-1.19zm1.28-426.59c0 .08.17.23.26.35h.27a2.75 2.75 0 0 0-.17-.46c-.1-.14-.29-.1-.36.13zm-10 19.17c-.08 0-.23.17-.35.26v.27a2.58 2.58 0 0 0 .46-.18c.16-.08.12-.26-.11-.33zm18.73 70.13c.09.26.19.54.33.85-.11-.39.09-.9-.33-.83zm-16.69-86.23c.1-.18.05-.3-.08-.3a1.87 1.87 0 0 1-.08.32zm6.06-495.13v-.08l-.4-.11.36.42a.59.59 0 0 0 .04-.23zm43.57-2.05a.11.11 0 0 0-.14-.11c0 .1 0 .2-.06.31zm-40.54 351.8c-.05.05-.05.14 0 .26s.23.2.36.28.12-.12.19-.19c-.1-.12-.17-.28-.29-.34s-.22-.06-.27 0a1.48 1.48 0 0 0-1.21-1.2v1.21zM10.37 127.59l.21.21a1.62 1.62 0 0 0 .19-.4c0-.05-.12-.13-.19-.2zm12.8-69.43a1.69 1.69 0 0 0 .41-.19c-.07-.06-.15-.2-.2-.19A3.75 3.75 0 0 0 23 58s.12.17.17.16zm-11.68 67.53c.06.07.13.13.21.21l.39-.21c-.07-.07-.15-.2-.2-.19a1.62 1.62 0 0 0-.4.19zM0 1039V0h20v11.56c0 .95-.25 2 .6 2.76-.81 1.12-.6 2.41-.6 3.66 0 .7-.83 1.05-.65 1.87.11.49.83.83.12 1.67-.56.67.12 2-.62 3-.44.64.15 1.75.32 2.61.14.69-.15.5-.46.61-.47.14-.71-1-1.07-.28-.18.35-.6 1.47.71 1.5a.35.35 0 0 1 .38.26H19c.09 0 .17.25.21.4s-.13.18-.21.18h-.27v.07c.08.67-.27 1.4.23 2L19 32h-.31a2.85 2.85 0 0 1 .37.23c.95.76 1.15.8.3 1.5a8 8 0 0 1-1.27.66l3.63 1.84c-1.28 1.15-2.34-1.2-3.55-.09.9 1.16 2.75.54 3.53 1.93-.89.53-1.92.08-3.25.41l5.19 2.6c-1.49.89-2.77-1.14-4.41 0 1.38.5 2.87.61 4 2.43-1.76-.77-3-1.23-4.64-.75.78.69 1.81.35 2.45 1A8.42 8.42 0 0 0 23.3 45c.26.14.87-.26.71.44 0 .12-.62.05-.76.23-.5.65.42.65.54 1 .06.21.61.32.15.63-.15.09-.48.14-.56.06a2.24 2.24 0 0 0-2.45-.53c-.61.2-.69.92.23 1.15-.21 1.17-1.12.42-1.69.58-.28.08-.62.07-.71.37s-.11.63.22.79a17.48 17.48 0 0 1 4 3.41 1.17 1.17 0 0 0 1.6.12c.95-1 1.33-.09 1.92.36.81.61.81 1.75 1.68 2.35.65.45.58.56 2 .48a3.68 3.68 0 0 1 2.82 1.3c2.35 2.31 5.34 3.75 7.84 5.87a2.45 2.45 0 0 0 2.09.73c.52-.14.85-.08 1.32-.71a17.63 17.63 0 0 0 2.42-4.45 3.06 3.06 0 0 1 1.8-1.94c.54-.17.9-.37 1.12.31.06.17 0 .4.14.54.87 1.16 1.43 1.33 3.08.78a50.76 50.76 0 0 0 5-1.86c.59-.27.78-.87 1 .29.1.66 1.39.48 1.46.27.52-1.67 2.17-1.42 3.41-2-1.55-.73-1.54-.73-.8-1.74.37-.5.71-1 1.07-1.54a4.66 4.66 0 0 1 .73 2.93.28.28 0 0 0-.15 0c-.13.06-.21.23-.28.36s.12.12.37-.09c-.06.18.1.11.16 0a.3.3 0 0 0 0-.19c1.18-1.13 1.55-2.32 1-3.53-.47-1-.66-1.53.65-1.35a5.35 5.35 0 0 0 3-.79c1.51-.67 1.92-.79 3.23-.45s1.45.37 1.77-.92c.09-.37-.07-.83.5-.89s.68.13.75.65 1.12 1.19.13 2c-.15.13.5 1 1.13.93.93-.08 1.28.27 1.13 1.17a.86.86 0 0 0 .61.93A1.45 1.45 0 0 1 79.81 55c-.11.62.19.77.81.91s0 .48-.09.75c-.2.5-.27 1 .5 1h1.5a5.52 5.52 0 0 1 .91 0 1.39 1.39 0 0 1 1.18 1.13c.22 1-1 .41-1.18 1l1.18.62c-.39.27-.56.88-1.14.88-.37 0-.84.2-1.12-.18s.1-.83.35-1.25.22-1-.53-1-1.56-.27-2 1c-.4 1.09-2 1.69-1.58 3.28.09.33-.28.39-.5.56-.67.54-2 .25-2 1.6 0 .31-.67.28-.76.15-.56-.81-1-.34-1.3.14s-.7.39-1.1 0c-.11-.11-.54 0-.79.1-.67.29-.76.86-.21 1.27s1.72.5 1.88 1.58c-.84-.19-1.79.41-2.55-.41s-1.28.84-1.74.38c-1-1-1.72 0-2.56 0s-.93.3-1.11 1-.83-.86-1.24.08a15.53 15.53 0 0 1-.85 1.47c-.28.47-.85.41-1.23.66a2.9 2.9 0 0 0-.93 1.41c-.3.69-1.4 0-2 .84-.92 1.16-1.09 1.08 0 2.34.26.32.58.58.23 1.18a14.35 14.35 0 0 0-7.57-1.64c-.63 3.12.79 5.6 2.64 7.8 1.68 2 3.66 3.74 5.52 5.58a.68.68 0 0 1 .13.82c-.21.43-.46.11-.61-.09-.32-.42-1.34 0-1.15-1-1.45-1.45-2.59-3.18-4.54-4.15-1.45-.72-1.7-2.49-2.59-3.72-.11-.14-.25-.67-.62-.25a1.15 1.15 0 0 0-.11.55.46.46 0 0 0 .11.26c.69.77.92 1.32-.49 1.42-1.57.1-1.46 1.3-1.44 2.4h.27c.13 0 .19.23.29.34-.07.07-.17.2-.19.19a.84.84 0 0 1-.36-.27c-.06-.13-.06-.22 0-.27-.63.11-.8-1.09-1.79-.4a30.23 30.23 0 0 1-6.3 3c-1.64.65-3.68 1.89-3.4 4.45a2.82 2.82 0 0 1 0 .58c-.14 1.28-2.61 1.76-1.21 3.56-.85 1-1.2 2.3-2 3.38a9 9 0 0 0-1.52 3.86c-.11.73-.68 1.1-.77 1.83s-1.24 1.2-1.57.8c-.55-.7.26-1 .44-1.49.06-.18 0-.41.1-.56.76-1.4 1.87-2.7 2.23-4.19s.09-3.4.09-5.1c.43-.09 1.07.29 1.21-.48a1.59 1.59 0 0 0-1-1.91c-.61-.23-.86.23-.81.85 0 .06-.25.15-.39.22-.15-1-.59-1-1.37-.52a4.26 4.26 0 0 1-2.15.71c-.63 0 0 1.13-.45 1.53-.24.21-.8 1.68-1.1-.07-.1-.57-.88-.38-1.32-.31-.74.12-.34.79-.46 1.21-.27 1 .88 1.52.62 2.47-.09.33-.21.51-.57.54s-.62-.14-.64-.44v-2.42a1.06 1.06 0 0 0-1.49-.76 11.94 11.94 0 0 0-1.09 1c-.59.52-.39 1.77-1.28 1.83s-.85.86-1.24 1.3c-.82 1-2.1 1-3.12 1.14a3.59 3.59 0 0 0-2.25 1.21c-.47.5-.56 1.2-1.42 1.54a2.85 2.85 0 0 0-1.4 2.68c0 1 .22 2.17-.61 3.07.36 2.09-.76 4-.67 6.1.06 1.29-.69 2.57-.57 4a12.55 12.55 0 0 1-.47 4c-.42 1.81-.08 3.8-.11 5.71 0 .66.28.73.85.88s.31.67.1 1.18c-.61 1.47-.39 2.2 1 2.32s1.32.93 1.06 1.55a11.52 11.52 0 0 0-.5 5.8c.18 1.88.66 3.76.9 5.62a11.41 11.41 0 0 0 .82 4 1.65 1.65 0 0 1-.13 1.12 13.87 13.87 0 0 0-.14 7.26 1.7 1.7 0 0 1-.12 1.51c-.21.35.61.84.44 1.48s.49.8.73 1.22c1-1.69 1-1.7 1.23-4.29a4.19 4.19 0 0 1 1-1.91c1-1.42.28-2.78-.38-4.1-.09-.17-.3-.28-.42-.44-.59-.82-.44-1.13.58-1.24 1.64-.17 1.87-.31 1.3-1.6-.26-.62-.22-.9.2-1.08 1.08-.47.28-1.66 1-2.34s-.74-1.23-.51-2c-1.1-.63 0-2-.85-2.67-.41-.31-.06-.51.12-.63 1.33-.88.53-2.44 1.15-3.54a8.44 8.44 0 0 1 1.23-1.18c.31.18.38.63.24.77a2.42 2.42 0 0 0-.61 1.88c0 .88.69 1.15 1.08 1.68.65.86 1.15.39 1.69-.14.8-.81 2.58 0 2.88-1.69 0-.14.25 0 .42.16.38.43.72.68.41 1.48-1.34 3.45-1.31 3.48-.37 7.78.17.79-1.08 1.49 0 2.23-.85.54-.59 1.4-.6 2.16v2.71c1.15.28-.1 1.1.38 1.79s.17 2.11.19 3.21c0 .71-.05 1.42 0 2.12s-.31 1.57.32 2.28c.36.41-.63 1.09.24 1.54.17.09 0 .78 0 1.16.29 1.15-.52 2.19-.1 3.46s.1 2.59.08 3.9c0 .83.19 1.7-.46 2.41.82.6.39 1.47.45 2.23a11.44 11.44 0 0 1 0 2.11c-.05.66.27 1.35-.34 2-.33.35 0 1-.12 1.53a3.84 3.84 0 0 0 .33 3.42c.25.32.13 1 .14 1.43a10.07 10.07 0 0 1-.06 3c-.25.84 1.1 1.49.11 2.25 1.39.86-.08 1.66-.07 2.5.06 4.33-.44 8.73.16 13s.26 8.51.45 12.76c.05 1.13.31 2.32-.53 3.41-.28.35-.2 1.53.07 1.67 1.29.67-.36 1.48.23 2.18s-.21 1.44-.24 2.06c-.07 1.52-.66 3.18.33 4.64a.68.68 0 0 1-.11 1 1.07 1.07 0 0 0-.3 1.35c1 1.37.61 2.89.53 4.31-.23 4.28 1.11 8.46.64 12.74-.06.57.51.94.52 1.27 0 .69.57 1 .74 1.54.21.73-.74 1.11-.38 1.76s1.16.57 1.83.7.16 1.24 1.25 1.3c.49 0 .46 1.13-.08 1.75a1.89 1.89 0 0 0-.17 2c.25.55.55.87 0 1.32 1 .78.53 1.85.54 2.79v11.18c0 1.24-.31 2.49.53 3.71.6.87-.46 1.93-.06 3.13a3.61 3.61 0 0 1-.4 3.4c-.49.66-.09 1.95-.09 3 0 2.11.37 4.31-.09 6.32-.74 3.26-.42 6.5-.5 9.74s0 6.64 0 10.22c1.74-.25 3.33.18 5.16-.45 2.2-.74 4.57.09 6.49 1.56.79.6 1.4 1.44 2.16 2.1s.72 1.8 1.88 1.9c-.26.71.67.93.64 1.55v.9c.07 1.08 1.27 1.88 1.12 2.81a4.86 4.86 0 0 1-1.66 2.64c-.21.17-.12.77 0 1.15.36 2-.49 3.87-.71 5.79s-1.93 3.07-3.38 4.22c-.12.09-.56-.12-.75-.29-.47-.42-.79-.29-1.28 0a4.28 4.28 0 0 1-3.25.88 1.19 1.19 0 0 0-1.24.64c-.71.92-1.29.62-1.9-.12s-1.24-.61-2.07-.21c-1.54.75-2.58 1.6-2.39 3.54.32 3.16-1 6.23-.58 9.41-.88 1.22-.49 2.64-.63 4-.06.55 1.26 1.55-.44 1.67-.07.88.16 2-.27 2.59-.92 1.29.09 3-1.08 4.1.38 2.39-1.06 4.63-.57 7 .15.73-.8 1.3-.38 1.74.71.76-.3.92-.31 1.44-.05 1.83-.54 3.63-.67 5.48a10.7 10.7 0 0 1-.87 4.13 1.77 1.77 0 0 0-.22.82c0 .8-.34 1.93.07 2.35.9.95-.35 1.5-.11 2.3s.06 1.46.59 2.19c.42.57-.6.86-.78 1.4-.79-.45.08-1.43-1-1.91v5.45a3.67 3.67 0 0 0 .57 1.27.47.47 0 0 0-.59.46c0 .4 0 .79.59.75-.43 3 .86 5.84.63 8.81-.05.63-.19.91-.85.87-1-.06-1.44.32-.67 1.16.47.52 0 1.37.76 1.76a4.08 4.08 0 0 1-.85.08c-.66-.05-1.14.46-.79.83 1.14 1.2 1 3.13 2.61 4.1a3.09 3.09 0 0 1 1 2.55c0 5.54.05 11.08-.07 16.62a10.25 10.25 0 0 1-1 4.37c-.43.84 1 1.26 0 2-.5.37 0 1.23-.59 1.88-.41.47-.18 1.52-.16 2.31a2.87 2.87 0 0 0 .27 1.7c.45.71.84 1.56-.63 1.89-.58.13 0 1.15-.28 1.64-1.11 2.15-.88 4.62-1.75 6.83-.48 1.22-.16 2.87-.88 3.83-.54.74.72 1.14-.11 1.67-.19.12.69 1.28.27 2-.3.47-1.18.31-1.28 1.26-.06.68-1.07 1.36-1 1.94.14.95-1 1.4-.66 2.17a2 2 0 0 0 1.61 1.12 1.1 1.1 0 0 1 .1.78.53.53 0 0 1-.76.24 11.87 11.87 0 0 1-1.3-1.15c-1.52 2.33-1.28 5.28-2.7 7.64.63 1 .15 1.81-.35 2.69-.31.54 1 1.26-.1 1.88-.7.41-.75 1.31-1.24 2 .33.81 1.64 1.11 1.64 2.14s1.05 1.71.66 2.78c-.09.26 0 .64-.29.77a.73.73 0 0 1-1-.36c-.45-1.38-1.33-1.8-2.9-1.13.15 3.2-.49 6.65.37 10.07.05.2.21.25 0 .44-1.68 1.52.09 2.56.56 3.76.14.34.55.57.83.86s.4.42.6.63a12.19 12.19 0 0 0-1.07 1.09c-.35.44-.53.28-.88 0s-1-.37-1 .37c-.07 1 0 2 0 3v10.58c0 1-.49 2.2.55 3.1.13.11.07.52-.17.81-.84 1-.26 2.29-.4 3.45a2.85 2.85 0 0 0 1.05 2.91 1.1 1.1 0 0 1-.15 1.56c-.51-.22-.07-1-.91-1.23v4.21a3.08 3.08 0 0 0 2.34 3c.73.15 1.72.27 1.71.85 0 2.19 1.46 1.55 2.62 1.63a1.76 1.76 0 0 1 .52.22c-.34.45-.58.94-1.27 1s-.49.57-.58 1.15a.45.45 0 0 0-.17 0 .81.81 0 0 0-.27.35s.11.12.36-.08c-.06.17.08.11.15 0 .91 0 1.2.57 1.27 1.43s-.6 1.56-.84 2.36c-.13.43-2-.34-2.2-1-.16-.49.26-1.27-.77-1.22-.66 0-2.22 1-2.25 1.6-.12 3.08-.22 6.18 2.1 8.68h.3c.49 1.4-1 1.55-1.48 1.66-1 .22-.92.76-1 1.45a1.47 1.47 0 0 0 1.22 1.71 5.42 5.42 0 0 0 1.21 0c-.14 1.15-1.17.29-1.63.72 1.09 1.29 1.5 1.52 2.27.66.93-1 2-.71 3-.77s1.77.39 1.75 1.45c0 1.63.65.45 1.1.37a7.14 7.14 0 0 1 1.23 0V575l-1.89-2.45c-.45 1-.5 1-1.21.41-.4-.31-1.26-.1-1-1 .08-.31.92-.64.35-.77s-1.05-1-1.8-.74c-.15 0-.36.29-.34.41.08.66-.33 1.41.28 2s.2 1-.22 1.46c-.76.84-1.53 1.7.29 2.29.53.17-.13.39-.18.6-.31 1.13-1-.59-1.54.26-.33.55-.53-.27-.79-.43-.51-.32-.17-.91-.29-1.37a.57.57 0 0 0-.68-.39c-.34 0-.53.21-.52.57 0 1.16-.23 2.35 1 3.21a3.46 3.46 0 0 1 1.42 3 .47.47 0 0 0 .6.47c-.44 1-.8 2.17-2.34 1.82-.48-.1-.73.19-.69.69 0 .33.21.47.56.52.94.14 2-.42 2.8.57.22.26.71-.06 1-.39.43-.49.92-.94 1.4-1.42.38.48.41.83.05 1.15-.71.66-.36 1.5-.29 2.24 0 .3.5.6.83.82.06 0 .48-.34.6-.59.73-1.5 1.44-3 2.09-4.55.15-.34.05-1-.49-.83-1.75.4-1-1.24-1.56-1.85l-1.29 1.21c-.28-1.88-.28-1.94 1-1.79.95.11 1.63.38 2.66-.49a5.53 5.53 0 0 0 2.1-4.56c0-1.34-.35-2.73.56-4 .44-.6-.72-1.33-.34-1.71.77-.76-.4-.88-.29-1.44a1.82 1.82 0 0 0-.4-1.94c-.36-.32-.31-.88.44-1s1-.7 1.27-1.38c.89-2 .64-2.79-1.43-2.79-1.14 0-1.89-.62-2.85-1a1.36 1.36 0 0 1 1.46-.26c2.15.58 3.15 0 3.33-2.12.05-.61 1-1.23.09-1.88 1.12-.67-.34-1.2-.12-2 .16-.59.58-1.2.48-1.77s-1-.68-1-1.38v-.6h1.21c1.21.05 1.87-.47 1.81-1.74 0-.29 0-.54.42-.61.42.74.11 1.56.17 2.33s.29 1.83 0 2c-.88.57-.15 1.25-.34 1.83a18 18 0 0 0-.23 3.85c-.11 1.44.27 2.88-.52 4.32a1.66 1.66 0 0 0 .91 2.42 1.75 1.75 0 0 0 .22-.51c.16-1.63-.15-3.25.53-4.92.61-1.49-.38-3.33.53-4.92.26-.46-.46-.51-.45-.89 0-.91-.3-2 .09-2.68s-.17-1.29.3-1.8l.36-6.12c0-.79-.12-1.57-.13-2.36 0-.19 0-.57.49-.33 1.56.73 3.1-.81 4.8 0 .33.4-.33.67-.47.7a1.46 1.46 0 0 0-1.4 1.93c0 .27.12.62-.29.79-.63-.5-.17-1.24-.3-1.86a.54.54 0 0 0-.58-.51c-.37 0-.59.16-.62.47v1.51a18.94 18.94 0 0 1-.19 4.47c-.31 1.2 1.14 2.56-.41 3.54 1.64 1.65-.14 3.29 0 4.95a14.22 14.22 0 0 1-.47 5c-.08-1.42-.15-2.83-.23-4.25-.25 2.65-1.36 5.13-1.17 7.83.07.9 1.49 1.69.16 2.9-.58.53.26 2.11-.68 3-.05 0 0 .19 0 .29.28 3.35-1.25 6.61-.42 10.12.57-.54.83-2.5 1.93-.47.5-.83 0-1.68.37-2.18a2.38 2.38 0 0 0 .54-1.61c0-.52.72-.66.61-1.26-.29-1.49.39-2.85.59-4.28.05-.4.18-1 0-1.18-1.32-1.26-.07-2.27.23-3.4.72.18.35.77.38 1.15 0 .59.42.57.83.58s.49-.84.85-.4.9 1.47.69 1.74c-1 1.3-.37 2.7-.52 4-.06.51-.25.72-.73.67s-.49-.49-.5-.88.13-.62-.25-.86c-1.68 1-.66 2.61-.76 4 .43-.57.86-1.14 1.27-1.7a.66.66 0 0 1 .33.85c-.87 1.87-.49 3.85-.61 5.8-.05.85.43 1.81-.4 2.55.6.86.09 1.62-.16 2.45s.34 1.79-.53 2.51c-.16.14-.08.57-.09.86a10.41 10.41 0 0 1-.52 3.71c-.47 1.07-.2 2.41-.59 3.68a13.77 13.77 0 0 0-.08 4.8c.11 1.53-.58 3.17.55 4.57-1 .86.52 1.64.06 2.55-.56 1.1.58 2 .58 3.06a10.79 10.79 0 0 0 0 3c1 3.42.45 6.9.54 10.35s0 7 0 10.57a7.92 7.92 0 0 0 .35 2.85c-.6.12-.34 1-.25 1.48 0 .14.45.22.59-.61.31-.85.9-1.17 1-.71.19.72.47 1.88-.26 2.1s-.83.63-.83 1.23c0 2 .08 4 0 6 0 1.11 1.18 2.05.59 3s.22 1.9.08 2.86a16 16 0 0 0 0 3c.05 1-.26 2.12.55 3.11.29.36 0 1.17 0 1.77 0 2.92.16 5.85 0 8.76-.31 4.59.68 9.09.61 13.65a8.63 8.63 0 0 1-.22 3.22c-.28.73.19 1.73.23 2.62.06 1.11 0 2.22 0 3.33a25.17 25.17 0 0 1 0 3c-.13 1.13.59 2.43-.58 3.38 1.17 1 .52 2.25.56 3.38s.38 2.33-.51 3.41a1.74 1.74 0 0 0 .06 1.69c.92.74-.12 1.6.1 1.88.64.8.25 1.13-.15 1.77-.28.43-.06 1.17-.06 1.78v8.15c0 .94.42 2-.55 2.76a1.91 1.91 0 0 1 .5 2.45c-.76 1.61-.36 3.27-.6 4.88-.89.21-.33-.65-.67-.85a1.09 1.09 0 0 0-1.7.68c-.38 1.55 1.22 1.81 1.75 2.76.09.18.78.13.68.67-.2 1 .49 2.19-.43 3.15-.16.17-.12.55-.17.83-.22 1.54.07 3.07-.34 4.67-.3 1.15-.1 2.68-.34 3.93a20.84 20.84 0 0 0-.53 4.9c.07 1.66-1 3.18-.6 4.89-1 1.31-.53 2.84-.59 4.28a34.34 34.34 0 0 1-.8 4.53c-.36 2.06-1.12 4.06-1 6.19.08 1.58-.89 3-.67 4.59a11.59 11.59 0 0 1 0 4.51c-.76 2.84-.47 5.69-.52 8.53s-.11 5.85 0 8.76c.09 2.08-.88 4-.67 6.1s0 4 .06 6c0 .6-.47.82-.62 1.26s.25.69.49 1 .52.12.88 0a3.17 3.17 0 0 0 2.32-3 3.9 3.9 0 0 1 1.94-3 3.45 3.45 0 0 1 3.63.25 2.81 2.81 0 0 0 1 .43c2.37.57 2.47 2.72 3 4.46.43 1.52-.5 2.78-1.59 3.84-.44.41-.86.85-1.29 1.28s-.87.83-1.26 1.29a.58.58 0 0 0 0 .57c1.06 1-.72 2.1 0 3.11.12.16.36.27.41.44.41 1.42.17 2.82-.59 3.26-1.17.68-2.08-.21-2.85-.75a7.17 7.17 0 0 0-4.55-1.23c-.59 0-.94-.22-1.56-1v4.5c0 .65.24 1.35-.93 1.45-.48 0-.48 1.12-.09 1.53.78.8.26 1.71.41 2.56.1.55-.32.56-.74.65-.78.17-.19.44 0 .73a1.39 1.39 0 0 1 .12.78c-2.09.65-.64 2.19-.83 3.32a1.86 1.86 0 0 0 .19-.22c.18-.31 0-.93.43-.92s.66.48.83.82-.83.34-.32.83a1.21 1.21 0 0 1 .37 1.06v2.12c0 .4-.31.39-.53.56-.78.58-.75.62-.08 1.18s.92 1.58.24 1.73c-1.38.32-1 1.33-.63 1.69.73.64 0 1.61.78 2.15.47.32-.09.45-.29.46-.86.07-.7.34-.23.81.23.24.79.72.59.78-.77.22-1.07.8-1.44 1.38l-.22-.51a5.72 5.72 0 0 1-.2-.53c-.14.08-.39.15-.39.23a12 12 0 0 1 0 1.8c-.13.69 2-.3.75 1.08-.64.74.59 1.09.5 1.81a1.81 1.81 0 0 0 .5 1.91.55.55 0 0 1-.33.9c-.67 0-.75.32-.85.91-.08.43-1.13.93.25.93.93 0 1.4.21.74 1.18s-.19 2.33-.33 3.49a15.59 15.59 0 0 0 0 1.81c0 .41 0 .79-.61.79s-.56-.39-.62-.79c0-.15-.21-.27-.46-.55a5.79 5.79 0 0 0 .06 3c.11.28.55.43.83.65l.56-1.51a57.59 57.59 0 0 1 .23 7.74c0 .58-.45.54-.85.52s-1 0-.95.74c.06.56.51.51.9.47.82-.07 1.08.24.79 1a17.44 17.44 0 0 0-.53 4.13c-.13 1.95.61 4-.4 5.86 1.11 1.23-1.18 2.81.42 4 .19.15.05.77 0 1.17-.08 1.08-1.45 1.74-.69 3.23.49 1-.09 2.4.14 3.56.27 1.39-.83 2.7-.06 4 .05.07 0 .2 0 .3 0 .76-1.41.14-1 .85a2.25 2.25 0 0 1 .34 1.66c-.14.73.71.95.64 1.57-.05.37.21.86-.24 1.09s-.67-.75-.78-.32c-.25.93-.7 2 .42 2.83.93 1.21.58 2.61.55 4 0 .29-.47.24-.75.3s-.55.5-.14.51c2.11.08 2.88 1.77 4 3.1a1.47 1.47 0 0 1-1.34-.4 5.17 5.17 0 0 0-2.27-1.74c-.29-.1-.49-.26-.6.07a.65.65 0 0 0 .22.8c.31.19 1.47-.18.53.88-.19.21.84 1.1-.49 1.07-.33 0-.42.89-.13.92 1.42.14 1 1.15 1.06 2a6.7 6.7 0 0 0 0 1.49c.18.65.82.4 1.26.37.68 0 .4-.31.15-.68a1.25 1.25 0 0 1 .42-2c.69-.32 1.06.28 1.18 1 .05.26.35.45.48.7a3.48 3.48 0 0 0 2.02 1.42c.63.22 1-.85 1.58-1.33l-3-3c-.05 0 0-.19 0-.29h.91c.59.06 1-.09.91-.79a3.69 3.69 0 0 0-.3-1.08c-.63-1.7-.52-1.94 1.06-3a5.43 5.43 0 0 0 2-2.42 2.45 2.45 0 0 0 0-2.47c-.48-.8-.84-1.67-1.31-2.48-.23-.4-.32-.79.07-1 1-.58.51-1.28.4-2.09-.32-2.4.67-3.39 3.15-3.44 1.15 0 2.34.25 3.39-.57a1.36 1.36 0 0 1 1.18 0 3.58 3.58 0 0 0 3.77 0c.84-.47 1.54.56 2.32.86.51.2.87.81 1.29 1.24.65.64 1.07.14 1.45-.32a2.63 2.63 0 0 0 .34-.76c.58-1.61 1.45-2 3.23-1.78a12.61 12.61 0 0 0 2.38.1 4.24 4.24 0 0 1 3.35 1.41 1.85 1.85 0 0 1 .74 1.52c0 .75-.32 1.61.52 2.21a.58.58 0 0 1-.12.79c-.36.26-.41 1-.44 1-1.21.31 0 1.8-1.11 2.2-.82.29-1.66.42-2.46.65s-2.07.49-2.47 1.69c-.86 2.57-3 3.77-5.2 5-1 .61-2.37.83-3.2 1.93.59 1 2.08 1.51 1.83 3.08 0 .21.55.72 1.07.91a2.67 2.67 0 0 1 1.88 3.23c-.14 1 .2 1.42 1.14 2a7 7 0 0 1 2.79 2 1.54 1.54 0 0 0 1.56.61h2.78c.31 1.17.23 2.49 2.16 2.5a9.48 9.48 0 0 1 3.93 1.36c.64.33.92.44 1.51 0a1.23 1.23 0 0 1 1.81.27c.13.17.69.26.25.63-.87.73-.25 1.21.27 1.67a1.43 1.43 0 0 1 .55 1.29c-.17 2.56-1 6-3.46 7.61-.59.4-1.58.92-1.34 1.81.34 1.27-1.39.74-1.35 1.88 0 .67-1 1.12-1.89 1-.19 0-.24.19-.25.52-.06 1.45-.25 1.27-1.39 1.91-2.7 1.53-5.93 2.44-7.26 5.72-1.76 1.33-2.4 3.41-3.4 5.24-.46.84-.65 1.91-2 1.7-.49-.07-.68.35-1 .61-1 1-2 2.13-3.53 2.46a1.49 1.49 0 0 0-1 1.28c-.23 1.25-1.37 2-1.84 3.17-.6 1.5-2.32 1.53-3.58 2.16 0-1.91-.06-3.82 0-5.72a7.69 7.69 0 0 1 .47-3.11c.86-1.94.07-2.9-2.28-3.87-.17-.07-.39-.08-.52-.2-1.12-1.08-2.1-2.55-4-1.15-.09.07-.66-.56-1-.82-1.95-1.29-2.37-1.79-2.69-3.25-.55.61-.13 1.35-.28 2a.55.55 0 0 1-.68.4c-.69-.11-.47-.39-.13-.7.08-.06.2-.13.21-.21 0-.39.09-.84-.47-.9s-.74.11-.74.65c0 1.9.06 3.81 0 5.72 0 1 .5.92 1.13.88a.61.61 0 0 1 .7.37 1 1 0 0 1 0 .58c-.11.27-.25.26-.42.1-.92-.83-1.36-.65-1.35.62v6.62c0 .41 0 .83.6.78.1.38-.23.53-.43.72-.9.87.75 1.78-.13 2.78a4.45 4.45 0 0 0-.67 3c.05 5.92 0 11.84 0 17.77 0 1-.25 2 .6 2.76-.81 1.12-.6 2.41-.6 3.66 0 .7-.83 1-.65 1.87.11.49.83.83.12 1.67-.56.67.12 2-.62 3-.44.64.15 1.75.32 2.61.14.69-.15.5-.46.61-.47.14-.71-1-1.07-.28-.18.35-.6 1.47.71 1.5a.35.35 0 0 1 .38.26H19c.09 0 .17.25.21.4s-.13.18-.21.18h-.27v.07c.08.67-.27 1.4.23 2l.05.07h-.31a2.85 2.85 0 0 1 .37.23c.95.76 1.15.8.3 1.5a8 8 0 0 1-1.27.66l3.63 1.84c-1.28 1.15-2.34-1.2-3.55-.09.9 1.16 2.75.54 3.53 1.93-.89.53-1.92.08-3.25.41l5.19 2.6c-1.49.89-2.77-1.14-4.41 0 1.38.5 2.87.61 4 2.43-1.76-.77-3-1.23-4.64-.75.78.69 1.81.35 2.45 1a8.42 8.42 0 0 0 2.25 1.33c.26.14.87-.26.71.44 0 .12-.62 0-.76.23-.5.65.42.65.54 1 .06.21.61.32.15.63-.15.09-.48.14-.56.06a2.24 2.24 0 0 0-2.45-.53c-.61.2-.69.92.23 1.15-.21 1.17-1.12.42-1.69.58-.28.08-.62.07-.71.37zm22.81-106.48c-.29-.16-.55-.37-1-.7v1.62c0 .46-.07.84.47.87A1.19 1.19 0 0 0 23 934c.83-.66.78-.95-.19-1.48zm-1.5-4.07c-.39.64.26.9.35 1.3.15.72.47 1.38 1.1 1.39.38 0 .77-.69.9-1.36.17-.84.12-1.4-.69-1.47a2.36 2.36 0 0 0-1.66.14zm-.13-2.12a3.49 3.49 0 0 0 .23.83c.15-.23.35-.4.33-.54a2.74 2.74 0 0 0-.28-.75c-.1.13-.28.31-.28.46zm.59-37.64c.06.06.14.2.19.19a2.57 2.57 0 0 0 .41-.19c-.07-.07-.15-.2-.2-.19a1.62 1.62 0 0 0-.4.19zm10.47-248.82c.28.44.57.3.17.12a.37.37 0 0 1-.17-.12zm-.89 24.45l1.11.85c.06-.16.2-.34.18-.5a1.24 1.24 0 0 0-1-1.06s-.14.32-.29.71zM29.86 722a1.93 1.93 0 0 0 1.13.1c.53-.06.48-.51.45-.9a4.75 4.75 0 0 0-.2-2.06 9.13 9.13 0 0 0-1.57 1.53c-.18.33-.31 1.04.19 1.33zm-3.14-140.37c.14.33.51.57.78.85.11-.18.28-.32.3-.49 0-.39 0-.77-.58-.75-.29.01-.63.09-.5.39zm-1.33 215.76a2.93 2.93 0 0 0-.4-.19s-.13.13-.2.19l.39.22zM25 579.66c.41-.47.9-.76.9-1.06 0-4.35 1.26-8.59 1.33-13.07-.74.31-1.26.65-1.2 1.26.27 2.67-1 5.2-.65 7.88a2.67 2.67 0 0 1-.38 2c-.51.73-.31 1.82 0 2.99zm-2.24 271.12c.1 0 .15-.31.21-.45 0-.32 0-.58-.39-.52-.09 0-.17.3-.2.48s.03.55.38.49zM20 587l.39.22.22-.22a3.75 3.75 0 0 0-.41-.19s-.2.12-.2.19zm-1.41 424.85a2 2 0 0 0-.4.18c.07.07.15.2.2.19a1.62 1.62 0 0 0 .4-.19c-.11-.03-.2-.21-.25-.19zm-1-17.35l.22.22.39-.22c-.07-.07-.15-.2-.2-.19a1.88 1.88 0 0 0-.47.18zm-.25 21.57l.19.13-.15-.15zm-3.43-415.3a5.1 5.1 0 0 0-1.5-1.37 2.72 2.72 0 0 0-.32.58c0 1.21 0 1.2.89 1.22.39.01.79.08.93-.43zm.2 8.76c.62.09.36-.47.39-.77s.15-.73-.19-.78c-.63-.08-.32.49-.41.77s-.13.74.21.78zm.82 20.17a1.46 1.46 0 0 0-1 1.74 2.61 2.61 0 0 0 .2.5 2.67 2.67 0 0 0 .41-.22 1.46 1.46 0 0 0 .39-2.02zM11 590.57c.3.59 1.66.65 2.53 1 .14.05.22.23.33.36-1.53.76-1.37.67-.6 2s.74-.11 1.08-.11c0-2 1.29-3.85.61-5.91-.79.06-1.52-.24-2.13.19-1 .72-1-.79-1.93-.69-.01 1.05-.33 2.29.11 3.16zm-.71-41.37a3.87 3.87 0 0 0 0 .59v.89a1.06 1.06 0 0 0 1.58.88 2.27 2.27 0 0 0 .46-3.06 1.52 1.52 0 0 0-1.58-.49c-.75.12-.4.76-.47 1.19zm7.86-75.87a3.11 3.11 0 0 0 .75.28c.14 0 .3-.18.46-.28l-.68-.35zm-2.32-301.61a.59.59 0 0 0 .48.21c1-.06.5-.84.61-1.31 0-.08 0-.18-.15-.57-.19.15-.27.2-.33.26-.35.41-1 .69-.61 1.41zM14.51 165a2.57 2.57 0 0 0 .41.19c.05 0 .13-.13.19-.19l-.38-.22c-.09.07-.15.14-.22.22zm7.33-108.89c0 .08.17.23.53.35a3.12 3.12 0 0 0-.17-.46c-.1-.16-.29-.12-.36.11zm-1.09 1.08a13.08 13.08 0 0 1-1.33-.51c.09.78 1.14 0 1.27.8 0 .09.31.41.42.13l.05.06c0 .77-.23 1.6.63 2.17a7.19 7.19 0 0 1 .86 2.67c-.9 1.32.48 2.3.54 3.48 0 .31.54.72 1.14.77a3.61 3.61 0 0 0 3.47-2.9 30.92 30.92 0 0 1 .06-3.61c.16-.93-.43-1.49-.71-2.15-.43-1-1.74-1.54-2-2.78 0-.06-.38-.1-.55 0s-.34.27-.32.34c.13.31 1 .69-.08.84a13.21 13.21 0 0 1-1.81 0c.13.72-.05 1.12-1.22.83 0-.26 0-.61-.17-.68-.45-.24-.92-.32-.25.54zm-2.21-35.35a2 2 0 0 0-.4.18c.07.07.15.2.2.19a1.62 1.62 0 0 0 .4-.19c-.06-.02-.15-.2-.2-.18zm-1-17.35l.22.22.39-.22c-.07-.07-.15-.2-.2-.19a1.88 1.88 0 0 0-.42.19zm-.25 21.57l.19.13-.16-.19zm-2.09 44.7l.22.21a2.93 2.93 0 0 0 .19-.4s-.13-.14-.19-.2c-.08.13-.15.26-.22.39zm-.6-7.26l.21.22a1.88 1.88 0 0 0 .19-.41c0-.05-.12-.13-.19-.2-.07.13-.14.27-.21.39zm-.09 15.63c.07.07.15.2.2.19a1.62 1.62 0 0 0 .4-.19l-.21-.21zM14 52.43a1.62 1.62 0 0 0 .19.4c.07-.06.2-.14.19-.19a1.53 1.53 0 0 0-.19-.41c-.05.07-.19.15-.19.2zm-1.3-2.92l.21.21.39-.21c-.07-.07-.15-.2-.2-.19a1.62 1.62 0 0 0-.4.19zm3 104.59l-.22-.21-.39.21c.07.07.15.2.2.19a1.53 1.53 0 0 0 .43-.19zM23.29 48c-.29 0-.74-.13-.79.21-.08.62.48.37.78.39s.72.15.77-.19c.09-.64-.48-.33-.76-.41zm-11.4 73.88a1.62 1.62 0 0 0-.4.19l.21.22.39-.22c-.09-.07-.15-.21-.2-.2zM43 587c.62 1 1 2.29 2.26 2.73 2.3.79 4 2.45 5.95 3.82.58.42.86.5 1.5.06.84-.59 1.45-.4 1.88.78.35.95.7 2.27 2.39 2.07.52-.06 1.16.67 1 1.53a2.87 2.87 0 0 0 .06 1.17 2.06 2.06 0 0 0 2 .86c.83-.4 1.82-2.15 1.52-2.68s-.56-.34-.94-.34c-.8-.05-1.39-.52-1.34-1.27.13-1.83-1.26-3-1.7-4.6a11.46 11.46 0 0 0 1.69-2 7.76 7.76 0 0 0-1.6-8.51 1.58 1.58 0 0 0-1.3-.53 14.64 14.64 0 0 1-3.31 0c-2.8-.56-4.3 1.8-6.44 2.69-.62 1.86-2.54 2.64-3.62 4.22zM63.89 77.13a1.88 1.88 0 0 0-.41.19l.22.22.39-.22c-.09-.07-.15-.2-.2-.19zM59 148.36a2.57 2.57 0 0 0 2.72-2.63c0-.82-1.73-2.75-2.6-2.81-1.43-.1-2.86 1.47-2.84 3.11a2.45 2.45 0 0 0 2.72 2.33zM54.78 322c.51 1.28 1.92 1.85 2.33 3s1.13 1 2 1.16c1.19.27 2-.63 3.09-.64h3.62c.47 0 .75-.14.73-.67 0-1 .06-1.53 1.31-.81 1.08.62 1.86.2 2.67-1a1.37 1.37 0 0 0-.37-2.06c-.15-.13-.28-.29-.43-.43a1.6 1.6 0 0 1-.31-2.53 3.17 3.17 0 0 0 .73-3c-.67-1.74-1.21-3.53-1.78-5.3-.1-.32-.22-.59-.57-.52-1.91.43-3.75-2.44-5.7-.12 0 0-.27-.14-.39-.2-.47-.47-.87-.35-1.28.07-.84.87-1.77 1.66-2.53 2.59a3.65 3.65 0 0 0-1 2c-.08 2.54-1.43 4.67-2.11 7a1.86 1.86 0 0 0-.01 1.46zM34.35 532.68a1.62 1.62 0 0 0-.19-.4c-.07.07-.2.15-.19.2a1.62 1.62 0 0 0 .19.4c.07-.06.2-.15.19-.2zm-.29 4.93a2.93 2.93 0 0 0 .4-.19l-.21-.22-.39.22c.06.06.14.2.2.19zm12.39 276.61c.2.09.29.62.64.17.88-1.13 2.28-1.54 3.19-2.82 1.49-2.12 2.08-4.6 3.36-6.77.28-.48-.21-1.64-.74-1.63-2.72 0-5.14-1.8-7.63-1.24A22.18 22.18 0 0 0 42 802c-.69.1-1.74.06-1 1.56a3.29 3.29 0 0 1-.33 3.38c-.29.36 0 .67.07 1 .69 3.23 2.96 4.96 5.71 6.28zm4.69-497.17a1.67 1.67 0 0 0 2-.91 1.59 1.59 0 0 0-.78-2c-.32-.19-.49-1.06-1.07-.29-.3.41-1.31-.05-1.14 1a13.67 13.67 0 0 1 0 2.13 8.92 8.92 0 0 1 .99.07zM70 670.18a3 3 0 0 0-1.76 3.08c0 2.54.52 4.59 3.08 5.64.09 0 .15.13.22.21 1 1.07 2 .89 3.11.14a19.08 19.08 0 0 1 4.53-2.06 25.66 25.66 0 0 1 0-3.41c.18-1.24-.84-2.18-.64-3.38.11-.61-.36-.64-.75-.94-1-.77-2.35-.08-3.06-.62-1.56-1.2-2.47 0-3.58.54-.37.22-.66.62-1.15.8zM65.31 79.1a.81.81 0 0 0 .35.27l.19-.19c-.09-.11-.17-.28-.29-.34s-.22-.06-.27 0a1.68 1.68 0 0 0-.17-.46c-.1-.16-.28-.12-.35.11 0 .08.16.23.26.35h.26s-.04.16.02.26zm7.85 879.58a6.07 6.07 0 0 0 0 1.93c.19.52 1 .63 1.43.8 1.19.44 1.38-.94 2.09-1.31a2.79 2.79 0 0 0-3.52-1.42zM78 67.61a.84.84 0 0 0 .36.27s.12-.11.19-.18c-.1-.12-.17-.29-.29-.35s-.22-.06-.27 0a2.29 2.29 0 0 0-.17-.46c-.1-.16-.28-.12-.36.11s.17.24.26.35H78s-.06.13 0 .26zm-8.7 10.53c.36-.2.22-.53.21-.8 0-.08-.29-.25-.37-.21-.35.16-.22.5-.2.77.06.1.24.17.36.24zm3.86 242a2 2 0 0 0 2 1.78 2.72 2.72 0 0 0 2.19-2c.1-.88-1.07-2.07-2.22-2.25-.74-.15-1.94 1.33-1.97 2.43zM75.84 70c-.47-.32-.82-.6-1.2-.81s-.31 0-.29.27c0 .48 0 1 .68.92.16-.03.31-.16.81-.38zM61 704.77c-1.17 1.36-.26 2.51.06 3.74 0 .13.3.21.46.31a1 1 0 0 0 .3 0c1.27-.48 2.11-3.12 1.34-4.23-.61-.91-1.42-.66-2.16.18zM31.17 976.06a.81.81 0 0 0-.27.35s.12.13.19.2c.11-.1.28-.17.34-.29s0-.38-.26-.26zm.55 0a.51.51 0 0 0 .3-.4 2.63 2.63 0 0 0-.23-.74.5.5 0 0 0-.34.63c.13.1-.3.58.27.45zm.93 3c0-.18.05-.52 0-.54a.43.43 0 0 0-.58.4 2.3 2.3 0 0 0 .16.75.51.51 0 0 0 .42-.67zm-9.37 59.56c.27 0 .72.15.77-.19.09-.63-.48-.32-.76-.41s-.74-.13-.79.21c-.08.59.5.34.78.36zm1.42-74.24l-.21-.39c-.07.07-.2.15-.19.2a1.62 1.62 0 0 0 .19.4zm32.14 74c-.07-.26-.08-.53-.17-.77s-.29-.15-.38.1a.72.72 0 0 0 .28 1c.26-.01.34-.1.27-.39zm-32.4-71.39c.11-.09.28-.16.34-.29s.06-.22 0-.26a2.1 2.1 0 0 0 .46-.18c.16-.1.12-.28-.11-.35s-.23.16-.35.26v.26h-.27a.81.81 0 0 0-.27.35s.13.08.2.15zm9.81-441.79c-.08 0-.37.12-.37.21 0 .27-.15.59.2.79.12-.07.36-.14.36-.23.02-.33.15-.68-.19-.83zM71.27 703c-1-.88-1.25.57-2.08.54s-1.29 2.18-.84 3.14a1.61 1.61 0 0 0 1.91 1c2 0 2.26-.23 2.29-2.2a2 2 0 0 1 0-.6c.39-1.28-.68-1.38-1.28-1.88zm-36.09-57.9c.7.51 1.29.3 1.69-.54a2.58 2.58 0 0 1 2.49-1.75c1.79-.1 2.3-2.26 3.56-3.34a.28.28 0 0 0 0-.28c-.88-.88-.24-2.68-2.14-3a3 3 0 0 1-2.12-2.6 2.48 2.48 0 0 0-2.66-2.16 1.41 1.41 0 0 0-1 .37c-1.3 1.11-1.61 2.23-.46 4.09a7.76 7.76 0 0 1 .28 8.15c-.44.77.11.88.36 1.06zm-.11-125.22a3.75 3.75 0 0 0-.41-.19s-.13.13-.2.19l.39.22zm21.76 518.72a.76.76 0 0 0 .1.4h.48c-.05-.27-.24-.41-.58-.4zm5.45-1.55c.06.13.23.21.36.28s.12-.12.19-.19c-.1-.12-.17-.28-.29-.34s-.22-.06-.27 0a2.54 2.54 0 0 0-.17-.46c-.1-.16-.28-.12-.36.12 0 .08.17.23.26.35h.27c-.05.03-.05.12.01.24zm4.85-342.94c0-1.15-.8-1.91-1.27-2.8a1.69 1.69 0 0 1 .3-2.45 6.25 6.25 0 0 0 2.12-5.73 4.66 4.66 0 0 0-1.78-3.28c-1.17-.72-2.42-1.66-3.83-1.24a4.67 4.67 0 0 0-4.06 1.52c-1.27 1.3-2.58 2.56-3.84 3.85a2.92 2.92 0 0 0 .68 4.88 13.43 13.43 0 0 1 2 1c1.39 1.17 2.32 1.48 3.75 1a1.31 1.31 0 0 1 1.69 1 1.61 1.61 0 0 1-.35 1.38 1.28 1.28 0 0 0 .18 1.83c.72.77 1.77.52 2.63 1s1.79-1.02 1.78-1.96zm7.72 343.29c-.57.06-.41.52-.5.89s-.14.54-.2.71h1.92c-.14-.32-.43-.62-.47-1-.07-.47-.3-.65-.75-.6zM70.12 47.06c.06-.37.09-.82-.44-.86a2.16 2.16 0 0 0-.75.28l.85.82c.1-.07.32-.13.34-.24zm-4.82-3.3c1.21-.36 1.11-1.43 1.7-2 .41-.43-.08-.84-.41-1.2s-.63-.51-1-.33-.29.67-.29 1c-.01.77 0 1.54 0 2.53zm16.92 10c-.06-.07-.14-.2-.19-.19a1.53 1.53 0 0 0-.41.19l.22.22zm1.1-4.13a1.62 1.62 0 0 0-.19-.4c-.07.06-.2.15-.19.2a1.62 1.62 0 0 0 .19.4c.07-.09.2-.17.19-.22zm0-6.65a1.62 1.62 0 0 0-.19-.4c-.07.06-.2.15-.19.2a1.62 1.62 0 0 0 .19.4c.07-.09.2-.18.19-.18zm-1.12 4.56a2.74 2.74 0 0 0-.28-.75c-.1.15-.28.31-.28.46a3.49 3.49 0 0 0 .23.83c.13-.24.35-.4.33-.54zm-19.93-.75c-.05.05-.05.14 0 .26s.23.21.36.28.12-.12.19-.19c-.1-.12-.17-.28-.29-.34s-.22-.06-.27 0a2.54 2.54 0 0 0-.17-.46c-.1-.16-.28-.12-.36.12 0 .08.17.23.26.35zm-4.84 2.42v.26a.81.81 0 0 0 .35.27s.12-.11.19-.18c-.09-.12-.17-.28-.29-.34s-.22-.06-.26 0c0-.41-.19-.61-.61-.6.01.38.19.6.62.59zm-35.92-1.74c-.08 0-.23.16-.35.26V48a2.41 2.41 0 0 0 .47-.18c.16-.1.12-.28-.12-.35zm3.8 1.53l-.22-.39c-.07.07-.2.15-.19.2a1.88 1.88 0 0 0 .19.41zm49.06 20.16a.52.52 0 0 0-.61-.61.52.52 0 0 0 .61.61zm-5.44 967.32l.85.82c.1-.07.32-.13.34-.24.06-.37.09-.82-.44-.86a2.16 2.16 0 0 0-.75.28zM83.68 63.79a1.16 1.16 0 0 0 0 1.6c.44.45.82-.25 1.22-.33 1-.19 1.43-1 2.07-1.54.11-.11.08-.36.12-.55s-.27-.4-.61-.48c-1.34-.34-2.08.51-2.8 1.3zM60.56 49.3v4c.32-1.3.75-2.68 0-4zm-4-.69c.26.09.34 0 .27-.29s-.08-.53-.17-.77-.29-.15-.38.1a.72.72 0 0 0 .29.96zM25.31 1039l-.22-.39c-.07.07-.2.15-.19.2a1.19 1.19 0 0 0 .08.2h.33zm7.41-944.2c0 .09.17.24.26.36h.27a1.88 1.88 0 0 0-.17-.47c-.08-.16-.28-.12-.36.11zm32.87 935.38c-.43.2-.29.67-.29 1v2.54c1.21-.36 1.11-1.43 1.7-2 .41-.43-.08-.84-.41-1.2s-.59-.52-1-.34zm4.66-425.36a1.41 1.41 0 0 0-1.33 1.28c.11.92 1.31 2.42 1.86 2.36a2.94 2.94 0 0 0 1.77-2.41c-.17-.9-1.12-1.39-2.3-1.23zm9.57 114.83a1.34 1.34 0 0 0 1.37 1.26c.82.05 1.66.09 2.09-.77a1.58 1.58 0 0 0-.31-1.87 2.9 2.9 0 0 0-3.16-.88c0 .86-.06 1.61.01 2.26zm-27.66 126.8a8.23 8.23 0 0 0 2.44 1.27c.84.27 2.23-1.21 2.22-2.31a2.57 2.57 0 0 0-.4-1.94c-.65-.76-1.85 0-2.29-1-.55.33-1.09.68-1.65 1s-.45 1-.5 1.8c.02.26-.09.98.18 1.18zm15.2-276.18c-1.73.1-3 .43-4.12 1.81-.4.52-.81 1.18-1.56 1.3-.5.08-.66.12-.31.65a3.62 3.62 0 0 1 .88 2.93c-.39 1.37 1.2 1.66 1.36 2.8.09.64 1.24.16 1.91.28a7.61 7.61 0 0 0 .85 0c1.49.64 2.68-.64 4.07-1.22 1.11-.46.79-1.68 1.23-2.51a3.58 3.58 0 0 0-.59-4c-.91-1.16-1.87-2.14-3.72-2.04zm43.53 362.21c.68-.08 1.58-1.61 1.57-2.31 0-.46-.22-.77-.7-.66a8.15 8.15 0 0 0-3.14 1.11c-.65.48-.45.93 0 1.46.72.73 1.55.48 2.27.4zM85.8 158.32a4 4 0 0 0 .43 1c.63.8 1.5.59 2.2.44a1.44 1.44 0 0 0 1.08-1.54c0-1.53-.45-2-2.14-2h-.6c-1.32.12-1.59.78-.97 2.1zm2.14 13.78c-1.3.42-2.93.25-3.91 1.4a6.36 6.36 0 0 0-1.24 3.72c-.13 1.39 1 1.81 1.62 2.66A2.44 2.44 0 0 0 87 181c2.13 0 2.14 0 3.55-1.42.68-.69 1.46-1.24 1.35-2.48-.12-1.83-2.62-5.42-3.96-5zm-6.19 443c.57 0 1.73-1.11 1.68-1.55a2.71 2.71 0 0 0-2.09-2.08 1.48 1.48 0 0 0-1.53 1.69c.11.74 1.37 1.99 1.94 1.95zm4.13-493.95c.41-.1 1 .27 1.18-.46.1-.49-.71-1.41-1.22-1.35a1.32 1.32 0 0 0-1.17 1.1c-.15 1.01.7.64 1.21.72zm-4 916.92c.15-.24.35-.4.33-.54a2.74 2.74 0 0 0-.28-.75c-.1.15-.28.31-.28.46a3.49 3.49 0 0 0 .22.84zm1.07-5.33a1.53 1.53 0 0 0 .19.41c.07-.07.2-.15.19-.2a1.62 1.62 0 0 0-.19-.4c-.08.07-.21.16-.2.2zm-69-518.6c-.18 0-.46.11-.48.2-.06.35.2.42.5.39s.46-.11.47-.21c.01-.34-.25-.42-.54-.37zm6.25 44a1.88 1.88 0 0 0 .41-.19l-.22-.21-.39.26s.1.17.15.16zm-.22-8.66c.06-.66-.31-.21-.48-.08s-.38.38-.72.42-1.1-.42-1 .39c0 .47.51.91.79 1.36 1.06-1.35 1.14.74 1.88.54.8-1.02-.6-1.68-.52-2.61zm.12 7.52a8 8 0 0 0 .45-1.11c.06-.53-.3-.66-.71-.6-.2 0-.63 0-.32.47a11 11 0 0 1 .58 1.24zm.9-24.31c.49-1.18-.83-1.32-1.18-2a2.65 2.65 0 0 0-.29-.32c-.15.41-.23.52-.21.57.41.65.27 1.64 1.2 2a.55.55 0 0 0 .48-.25zm-5.24 5.64c.64.25.7-.44.9-.72.4-.58-.23-.48-.49-.48s-1-.24-1.08.51c-.02.44.17.71.7.69zm1-3.83a3.75 3.75 0 0 0-.19-.41c-.07.07-.2.15-.19.2a1.88 1.88 0 0 0 .19.41c.12-.07.26-.15.25-.2zm-.13 4.36s.12-.11.19-.18c-.1-.12-.17-.29-.29-.35s-.38 0-.26.26a.84.84 0 0 0 .42.27zm2-24.12c0-.18-.12-.47-.21-.49a4.57 4.57 0 0 0-2.84.22 24.13 24.13 0 0 1 2.61.85c.34.08.63-.22.55-.58zM23.86 499a.52.52 0 0 0 .3-.4 2.54 2.54 0 0 0-.23-.74.5.5 0 0 0-.34.62c.13.15-.3.62.27.52zM22 486.35c-.38-.07-.82-.09-.86.44 0 .24.18.49.28.74l.81-.85c-.02-.09-.09-.32-.23-.33zM23.31 499a.81.81 0 0 0-.27.35l.19.19c.11-.09.28-.17.34-.29s0-.34-.26-.25zM22 520.3c-.35.15-.21.5-.2.77 0 .09.24.16.36.24.36-.2.23-.53.21-.8-.02-.08-.31-.25-.37-.21zm.78 12.54a3.61 3.61 0 0 0 .19-2.06c0-.27-.42-.39-.72-.3s-.77.17-.24.47c.76.44-.08 1.49.75 1.89zm0-65.74a1.89 1.89 0 0 0-.41.18l.21.22.39-.22c-.06-.06-.14-.2-.19-.18zM21.63 517c.09-.63-.48-.32-.76-.41s-.74-.13-.79.21c-.08.63.48.37.78.39s.73.11.77-.19zm-3.16 2.64c-.1 0-.17.23-.26.36l.83.83a2 2 0 0 0 .29-.74c-.03-.58-.48-.55-.86-.49zm1.83 29.08c-.08 0-.23.16-.35.26v.27a2.41 2.41 0 0 0 .47-.18c.16-.14.12-.32-.12-.39zm-2.08-5a2.47 2.47 0 0 0 2.22-.27c-.71.18-1.56-.88-2.22.18zm2.14-2.77a2.44 2.44 0 0 0-.36.05l.22.22.39-.22c-.12 0-.2-.16-.25-.14zm-3.12-1.59c1.33.26 2.38 1.79 3.32-.37a9.48 9.48 0 0 0-3.32.28zm2.51-63.11a2.93 2.93 0 0 0-.4.19l.21.22.39-.22c-.07-.15-.15-.29-.2-.28zm.5 57.93c-.1.15-.28.31-.28.46a3.56 3.56 0 0 0 .23.84c.15-.24.35-.41.34-.55a3.31 3.31 0 0 0-.29-.84zm-4.52-2.15a.81.81 0 0 0 .35.27s.12-.11.19-.18c-.09-.12-.16-.29-.29-.35s-.37-.08-.25.17zm1.89 10.4l.22.22a2.44 2.44 0 0 0 .18-.41s-.12-.13-.18-.2zm-.09-6.74c.07.07.15.2.2.19a1.88 1.88 0 0 0 .41-.19l-.22-.21zm2.19-34.66c-.72-.48 0-1.34-.72-2a3.87 3.87 0 0 0-.22 2.16c0 .1.47.27.72.28s.72-.21.22-.53zm-4 5.94c.56.05.57-.35.59-.74l-.31-.46-.79 1a2.59 2.59 0 0 0 .53.11zm2.8-.49a2.93 2.93 0 0 0-.4.19c.07.07.15.2.2.19a1.62 1.62 0 0 0 .4-.19c-.04-.15-.13-.29-.18-.28zm1.63-27.2c-.35.15-.22.5-.2.77 0 .09.24.16.36.24.35-.21.22-.53.21-.8.01-.18-.27-.34-.35-.3zm3.61 38.46a2 2 0 0 0 .4-.18l-.21-.22-.39.22c.09-.03.17.11.22.09zm-6.13 20.28c-.06.35.2.42.5.39s.46-.11.47-.21c.07-.35-.2-.43-.49-.38s-.44.02-.46.11zm10.84 36c.7-1.15.7-1.15 0-2.93zM32 733.31l.39.21.22-.21a1.88 1.88 0 0 0-.41-.19c-.01-.01-.09.12-.2.19zm-2.72-172a8.42 8.42 0 0 0 0 4.23 8.42 8.42 0 0 0 .04-4.24zm-1 17.55v-4.74c-.66 1.2-.71 2.76.07 4.73zm4.31-33a.76.76 0 0 0 .35.28l.19-.19c-.09-.12-.16-.28-.29-.34s-.22-.06-.26 0c-.07-.16-.11-.45-.21-.47-.36-.08-.42.18-.4.47h-.26a.81.81 0 0 0-.27.35s.11.12.18.19c.12-.09.28-.16.34-.29s.06-.21 0-.26h.59s.05.12.11.24zm-8.11-75.3s.12-.11.19-.18c-.1-.12-.17-.29-.29-.35s-.38 0-.26.26a.84.84 0 0 0 .43.25zm8.31 96.08c.35.06.44-.2.39-.49s-.11-.46-.21-.48c-.35-.06-.42.2-.39.5s.18.44.28.45zM22 976a.5.5 0 0 0 .31-.4 3 3 0 0 0-.23-.74.5.5 0 0 0-.35.63c.17.16-.25.64.27.51zm.33-3.91c-.07-.07-.15-.2-.2-.19a1.62 1.62 0 0 0-.4.19l.21.22zm-.3.91a2.74 2.74 0 0 0-.28.75c0 .14.18.3.28.46.12-.24.24-.48.35-.68zm-.51-6.53c-.36-.06-.42.2-.4.49s.12.46.21.48c.36.06.44-.21.39-.5s-.07-.43-.16-.44zm9.27-401.27l.22.21.39-.21c-.07-.07-.15-.2-.2-.19a1.88 1.88 0 0 0-.37.22zm-7.41 403.48c.05 0 .13-.12.2-.19l-.39-.21-.22.21a1.88 1.88 0 0 0 .41.19zM29 867.08c.08.9.74 1.37 1.88 1.35s1.75-.56 1.75-1.47a3.29 3.29 0 0 0-1.73-2.15c-.66-.09-1.9 1.47-1.9 2.27zm0-296.8c1.07-1.16 0-2.57 1-3.65.41-.44-.09-.43-.29-.48s-.69.05-.7.34C29 567.75 29 569 29 570.28zm-15.36-5.35c.29.79 1.21.4 1.76.68s1 .92.9-.31c0-1.64 0-1.64-1.9-2.19a1.71 1.71 0 0 0-1.32.48c-1.08.97.42.89.58 1.34zm-.46-6.06c.66.1.73-.32.72-.88s0-.87-.73-1c-.85-.09-1.21.47-1.69.92.52.52.84 1.17 1.72.96zm3-.19a1.62 1.62 0 0 0-.19-.4l-.21.21.21.39c.1-.07.23-.15.22-.2zm8-98.65c-.06-.07-.15-.2-.19-.19a1.53 1.53 0 0 0-.41.19l.21.21zM13.29 561.89c.61-.25 1.2-.58 1.89-.92a3.6 3.6 0 0 0-2.17-.25c-.26 0-.37.42-.31.72s.24.56.59.45zm19.27-64.3c-.07-.12-.15-.35-.24-.36-.26 0-.61-.15-.77.2 0 .08.13.36.21.37.24.01.6.14.8-.21zm-13.1 71.16a1.88 1.88 0 0 0 .19.41c.07-.07.2-.15.19-.2a1.88 1.88 0 0 0-.19-.41c-.07.07-.2.15-.19.2zm1.4-7.45c-.07.07-.2.15-.19.2a1.62 1.62 0 0 0 .19.4l.21-.21zm-.3 4.84A2.58 2.58 0 0 0 21 566c.16-.1.12-.28-.11-.35s-.23.16-.35.26zm12.5-1.93c.06-.16.2-.34.18-.5-.13-1.13-1.11-.32-1.59-.68-.2-.15-.41-.28-.62-.42l-.2.51v.29c.62.59 1.67.02 2.23.8zM13.91 582a3.18 3.18 0 0 0 0 .44c.57 0 .79-.45 1.06-.78s-.15-.39-.4-.41c-.46-.03-.69.18-.66.75zm6.54-14.06v-1.72c-1.04.78-1.04.78 0 1.72zm-2.36 8.76c-.28-.52-1.18-.17-1.77-.72a14 14 0 0 0 0 1.45 1.67 1.67 0 0 0 .26.74c.92-.14 2.17-.06 2.65-.63s-.84-.31-1.14-.84zm1.62 2.06s.16-.29.17-.3a.6.6 0 0 0-.26-.83c-.25-.14-.33 0-.28.28s-.11.73.37.85zm4.55-111.16c-.45-.14-.72.18-.68.68a1.62 1.62 0 0 1-.45 1.33c-.24.27.16.4.47.4.16-.15.63.31.59-.31v-1.2c0-.4 1.22-.5.07-.9zm1.16-5.79a1.26 1.26 0 0 0 .8.81c.56.07.27-.52.39-.82a2.54 2.54 0 0 0-.3-2.66c-.52.86-1.19 1.62-.89 2.67zm.86-15.88a2.6 2.6 0 0 0 .09 2.49 2.88 2.88 0 0 0-.09-2.49zm-1.19-52.71a4.14 4.14 0 0 0 0 3 4.14 4.14 0 0 0 0-3zm1.13 64.57c.3.14.42-.21.38-.5s.23-.87-.22-1.07-.41.21-.38.56-.23.81.22 1.01zm1 81.46c0-.08-.29-.25-.37-.21-.35.16-.22.51-.2.77 0 .09.24.17.36.24.32-.2.19-.53.18-.8zM25 392.48c.63.09.32-.48.41-.76s.13-.74-.21-.78c-.62-.09-.37.47-.39.77s-.16.73.19.77zm.4 67.85a1.68 1.68 0 0 0-.17-.46c-.1-.16-.28-.12-.36.11 0 .08.17.23.26.35zm1.6 84.76a1.88 1.88 0 0 0-.41.19l.22.21.39-.21c-.06-.07-.14-.2-.2-.19zm-1.2-10.88a2.44 2.44 0 0 0-.41.18l.22.22.39-.22c-.07-.06-.15-.2-.2-.18zm-.6 4.69a.72.72 0 0 0 .8-.27c-.16-.1-.32-.3-.46-.29a3.14 3.14 0 0 0-.75.29zm1.16-5.48l.19-.19c-.09-.11-.16-.28-.29-.34s-.38 0-.25.26a.81.81 0 0 0 .35.27zM25 476l.39-.21c-.06-.07-.15-.2-.2-.19a1.62 1.62 0 0 0-.4.19zm.19 55.86c-.29-.23-.38.14-.4.4 0 .46.18.68.74.66a3.15 3.15 0 0 0 .44 0c.03-.61-.44-.84-.78-1.1zm2-65.44a1.21 1.21 0 0 0-.92-1.09c-1.19 3.3-1.37 6.48.94 9.81 0-3.14.02-5.97-.02-8.76zm-1.53 20.56c-.13-.06-.22-.06-.27 0a2.09 2.09 0 0 0-.17-.46c-.1-.16-.28-.12-.36.11s.17.23.26.35h.27c-.05.05-.05.14 0 .27a.84.84 0 0 0 .36.27s.12-.11.19-.18c-.09-.17-.16-.34-.28-.4zm4.16-8.58a2.57 2.57 0 0 0 .41-.19L30 478l-.39.22c.08.01.16.15.21.14zm.11-2.91l.21-.39-.21-.22a1.88 1.88 0 0 0-.19.41c-.01.01.12.09.19.16zm.5 7.14a1.62 1.62 0 0 0 .4-.19l-.21-.22-.39.22c.07.03.15.16.2.15zm-.5-10.77l.21-.22q-.11-.18-.21-.39c-.07.07-.2.15-.19.2a1.88 1.88 0 0 0 .19.37zm-1.21 6.62a1.39 1.39 0 0 0 0 1.87 1.39 1.39 0 0 0 0-1.91zm1.94-1.65c-.1-.16-.28-.12-.36.12 0 .08.17.23.26.35h.27a1.88 1.88 0 0 0-.17-.51zm-.54-7a2.57 2.57 0 0 0-.19-.41c-.07.07-.2.15-.19.2a1.62 1.62 0 0 0 .19.4c.07-.08.2-.16.19-.21zm1.32 55.52c.07.06.15.2.2.18a2 2 0 0 0 .4-.18c-.06-.07-.15-.2-.2-.19a1.62 1.62 0 0 0-.4.17zm-2.72-56.55c.07-.07.2-.15.19-.2a1.69 1.69 0 0 0-.19-.41l-.22.22c.07.12.15.25.22.39zm.19-102.59s-.12-.13-.19-.2c-.07.14-.15.27-.22.39l.22.22a1.69 1.69 0 0 0 .19-.41zm-.3 110.33a1.53 1.53 0 0 0 .41-.19l-.21-.21-.39.21c.06.07.14.2.19.19zm-.61-5.41l.39-.22c-.07-.07-.15-.2-.2-.19a1.69 1.69 0 0 0-.41.19zm3.39 6.56a.52.52 0 0 0-.3-.41c-.57-.09-.24.36-.27.56a10.9 10.9 0 0 0 0 1.5 1.63 1.63 0 0 0 .6-1.65zm-3.31-18l-.21.39.21.21a1.62 1.62 0 0 0 .19-.4c.04-.01-.09-.1-.16-.16zm-1.29 18.85c-.35.16-.22.51-.2.77 0 .09.24.17.36.24.35-.2.22-.53.21-.8.02-.04-.26-.21-.34-.17zm-11.9 53.13c.31-.11 1 .36.85-.58-.07-.5-.3-.66-.73-.62s-1-.24-1.1.52.44.71.98.68zm-3.16 4.13c.11.23.57.88.77.53.49-.91 1.69.14 2-.86a1 1 0 0 0-.27-.73c-.9.09-.94-.44-.93-1.11 0-.45.21-1-.51-1.49.09 1-.1 1.67-1.12.77-.22-.2-1 .06-.73.52.4.77.42 1.63.79 2.37zm0 4.29c.12-.1.28-.17.34-.29s0-.38-.25-.26-.2.23-.28.36.13.1.2.19zm.82-9.24c.55-1.54-.15-2.57-1.85-3.57a19.71 19.71 0 0 0 1.86 3.57zm.75-3.29c0 .16.18.31.31.52l.79-1a1.87 1.87 0 0 0-.49-.2c-.52-.1-.64.26-.6.68zm-1.88-8a1.43 1.43 0 0 0-.47.22l.77 1c.36.11.39 0 .38-.26-.02-.52.03-.99-.67-.93zm1.25 6c-.37.06-.87-.23-1.07.22-.14.3.21.41.63.37.22-.14.74.27.94-.21.14-.24-.17-.36-.49-.31zm7.57-38.7l-.27.42a.72.72 0 0 0 .27.79c.1-.15.3-.31.29-.45a3.21 3.21 0 0 0-.28-.69zm-6 38.09l-.22.39.22.22a1.88 1.88 0 0 0 .19-.41c-.02.02-.15-.06-.22-.15zm.91-27.31c0 .31.07.68.34.69 1.26.05 2.51 0 4.19 0-.59-.59-.9-1-1-1a2.84 2.84 0 0 1-3-.21c-.27-.06-.51.27-.56.59zm3.58-8.95c.29 0 .65-.14.56-.36a1.54 1.54 0 0 0-.78-.77c-.21-.09-.39.26-.34.58-.17.55.05.67.53.62zm1.36 21.95a3.75 3.75 0 0 0 .19.41c.07-.07.2-.15.19-.2a1.88 1.88 0 0 0-.19-.41c-.09.14-.23.22-.22.27zm-3.33-22.45a2.44 2.44 0 0 0-.41.18l.22.22.39-.22c-.1.01-.18-.13-.23-.11zm1.14.5a.81.81 0 0 0-.27.35l.19.19c.11-.09.28-.16.34-.29s-.03-.31-.29-.18zm-3.48 49.15a7 7 0 0 0-.6-.95c-.83.71.06 2.16-1.49 2.1-.27 0-.18-.23-.22.17s0 .37.32.31a6.74 6.74 0 0 1 .9 0c1.15.03 1.51-.47 1.06-1.56zm7.68 13.72c.06-.07.2-.15.19-.2a1.92 1.92 0 0 0-.19-.41l-.22.22c.04.19.12.32.19.46zm1.52-13.33c0-.36-.18-.55-.48-.57-.64 0-1.94.8-1.95 1.21a2 2 0 0 0 1.09 1.2c.72.15 1.35-.76 1.31-1.77zm-5.47 22.07c0-.27.15-.62-.2-.77-.08 0-.36.13-.37.21 0 .27-.14.59.21.8.09-.01.32-.08.33-.17zm-1.11 5a1.12 1.12 0 0 0 .93.65c.25 0 .53-.49.79-.77-.44-.32-.66-1-1.36-.88-.32.08-.54.27-.4 1.03zm10.4-29.54a1.62 1.62 0 0 0 .4-.19l-.21-.21-.39.21c.03.1.12.23.17.22zm.19-54.21l-.39.21c.06.07.15.2.2.19a1.62 1.62 0 0 0 .4-.19zm-5.43 68.34a2.93 2.93 0 0 0-.4.19l.21.22.39-.22c-.1-.03-.18-.17-.23-.16zm-9.12-29.66c-.08 0-.23.17-.35.26v.27a3.61 3.61 0 0 0 .46-.17c.13-.07.09-.26-.14-.33zM13 507.47c.07 0 .25-.29.21-.37-.16-.35-.51-.21-.77-.2-.09 0-.17.24-.23.34.16.41.5.23.79.23zm-.31 2.43c.31 0 .57 0 .51-.39 0-.09-.3-.17-.47-.2s-.56 0-.5.39c0 .09.29.14.44.2zm4.88 44.1c-.52 0-.66.27-.64.72s-.15.84.28 1a.81.81 0 0 0 .77-.13 24.28 24.28 0 0 1 1.87-1.59c-.76 0-1.52.06-2.28 0zm-6-32.33c.55.71 1.19 1.31-.35 1.52-.09 0-.24.28-.2.38.18.54 1.59 1.08 2 .74s.23-.81-.12-1.24c-.55-.7-.07-1.55-.22-2.32h-.61c.12.53-.64.79-.51.96zm1.94 22.55a2.5 2.5 0 0 0 .41-.19l-.22-.22-.39.22c.06.1.14.24.19.23zm6.73-63.42c-.48.77-.25 1.52-.19 2.59 1.6-.9.38-1.68.18-2.55z" fill="#004996"/></svg>